<svg width="21" height="21" viewBox="0 0 21 21" fill="none" xmlns="http://www.w3.org/2000/svg">
<path d="M20.5 10.5C20.5 13.5134 19.1672 16.2154 17.0588 18.0488C15.3031 19.5756 13.0095 20.5 10.5 20.5C7.99052 20.5 5.69694 19.5756 3.94117 18.0488C1.83285 16.2154 0.5 13.5134 0.5 10.5C0.5 4.97715 4.97715 0.5 10.5 0.5C16.0228 0.5 20.5 4.97715 20.5 10.5Z" fill="#A9ACB2" stroke="#28303F" stroke-linejoin="round"/>
<circle cx="10.5" cy="7.5" r="3" fill="#28303F"/>
<path d="M17.0552 18.0488C16.0617 15.3918 13.5 13.5 10.4963 13.5C7.49271 13.5 4.93093 15.3918 3.9375 18.0488C5.69327 19.5756 7.98685 20.5 10.4963 20.5C13.0058 20.5 15.2994 19.5756 17.0552 18.0488Z" fill="#28303F"/>
</svg>
